<!DOCTYPE svg PUBLIC "-//W3C//DTD SVG 1.1//EN" "http://www.w3.org/Graphics/SVG/1.1/DTD/svg11.dtd">
<!-- Uploaded to: SVG Repo, www.svgrepo.com, Transformed by: SVG Repo Mixer Tools -->
<svg height="256px" width="256px" version="1.1" id="Layer_1" xmlns="http://www.w3.org/2000/svg" xmlns:xlink="http://www.w3.org/1999/xlink" viewBox="-51.2 -51.2 614.40 614.40" xml:space="preserve" fill="#000000">
<g id="SVGRepo_bgCarrier" stroke-width="0">
<rect x="-51.2" y="-51.2" width="614.40" height="614.40" rx="36.864" fill="#477979" strokewidth="0"/>
</g>
<g id="SVGRepo_tracerCarrier" stroke-linecap="round" stroke-linejoin="round"/>
<g id="SVGRepo_iconCarrier"> <path style="fill:#EFEFEF;" d="M94.608,346.148h78.416L256,173.204l82.976,172.944h78.416c52.032,0,94.608-42.568,94.608-94.608 c0-52.032-42.576-94.608-94.608-94.608h-7.576c-7.544-31.896-36.136-55.648-70.336-55.648c-8.312,0-16.256,1.472-23.688,4.048 c-16.728-47.704-62.032-81.96-115.448-81.96c-67.616,0-122.432,54.816-122.432,122.432c0,4.256,0.224,8.464,0.648,12.608 C34.112,166.1,0,204.988,0,251.54C0,303.58,42.576,346.148,94.608,346.148z"/> <polygon style="fill:#db2929;" points="173.024,346.148 104.672,488.628 256,391.572 407.328,488.628 338.976,346.148 256,173.204 "/> </g>
</svg>